<mxfile host="app.diagrams.net" modified="2023-06-26T16:51:37.057Z" agent="Mozilla/5.0 (Windows NT 10.0; Win64; x64) AppleWebKit/537.36 (KHTML, like Gecko) Chrome/114.0.0.0 Safari/537.36 Edg/114.0.1823.58" etag="9Vojpst_TDw29utMQs3Y" version="21.5.0" type="github">
  <diagram name="Page-1" id="6kSOudFwhd9-eDFsBGlv">
    <mxGraphModel dx="1107" dy="601" grid="1" gridSize="10" guides="1" tooltips="1" connect="1" arrows="1" fold="1" page="1" pageScale="1" pageWidth="850" pageHeight="1100" math="0" shadow="0">
      <root>
        <mxCell id="0" />
        <mxCell id="1" parent="0" />
        <mxCell id="Eki4KBoAl_g5-UjPPlPT-1" value="Quản lí website sàn thương mại điện tử" style="rounded=0;whiteSpace=wrap;html=1;" vertex="1" parent="1">
          <mxGeometry x="240" y="40" width="320" height="40" as="geometry" />
        </mxCell>
        <mxCell id="Eki4KBoAl_g5-UjPPlPT-2" value="Khách hàng" style="rounded=0;whiteSpace=wrap;html=1;" vertex="1" parent="1">
          <mxGeometry x="80" y="120" width="200" height="40" as="geometry" />
        </mxCell>
        <mxCell id="Eki4KBoAl_g5-UjPPlPT-3" value="Admin" style="rounded=0;whiteSpace=wrap;html=1;" vertex="1" parent="1">
          <mxGeometry x="520" y="120" width="200" height="40" as="geometry" />
        </mxCell>
        <mxCell id="Eki4KBoAl_g5-UjPPlPT-4" value="Xem giới thiệu" style="rounded=0;whiteSpace=wrap;html=1;" vertex="1" parent="1">
          <mxGeometry x="90" y="200" width="180" height="40" as="geometry" />
        </mxCell>
        <mxCell id="Eki4KBoAl_g5-UjPPlPT-5" value="Mua hàng" style="rounded=0;whiteSpace=wrap;html=1;" vertex="1" parent="1">
          <mxGeometry x="90" y="600" width="180" height="40" as="geometry" />
        </mxCell>
        <mxCell id="Eki4KBoAl_g5-UjPPlPT-6" value="Tìm kiếm sản phẩm" style="rounded=0;whiteSpace=wrap;html=1;" vertex="1" parent="1">
          <mxGeometry x="90" y="520" width="180" height="40" as="geometry" />
        </mxCell>
        <mxCell id="Eki4KBoAl_g5-UjPPlPT-7" value="Đăng kí/Đăng nhập" style="rounded=0;whiteSpace=wrap;html=1;" vertex="1" parent="1">
          <mxGeometry x="90" y="440" width="180" height="40" as="geometry" />
        </mxCell>
        <mxCell id="Eki4KBoAl_g5-UjPPlPT-8" value="Xem chi tiết" style="rounded=0;whiteSpace=wrap;html=1;" vertex="1" parent="1">
          <mxGeometry x="90" y="360" width="180" height="40" as="geometry" />
        </mxCell>
        <mxCell id="Eki4KBoAl_g5-UjPPlPT-9" value="Xem sản phẩm" style="rounded=0;whiteSpace=wrap;html=1;" vertex="1" parent="1">
          <mxGeometry x="90" y="280" width="180" height="40" as="geometry" />
        </mxCell>
        <mxCell id="Eki4KBoAl_g5-UjPPlPT-11" value="" style="endArrow=none;html=1;rounded=0;entryX=0.54;entryY=1.033;entryDx=0;entryDy=0;entryPerimeter=0;" edge="1" parent="1" target="Eki4KBoAl_g5-UjPPlPT-2">
          <mxGeometry width="50" height="50" relative="1" as="geometry">
            <mxPoint x="70" y="620" as="sourcePoint" />
            <mxPoint x="380" y="290" as="targetPoint" />
            <Array as="points">
              <mxPoint x="70" y="180" />
              <mxPoint x="188" y="180" />
            </Array>
          </mxGeometry>
        </mxCell>
        <mxCell id="Eki4KBoAl_g5-UjPPlPT-12" value="" style="endArrow=classic;html=1;rounded=0;entryX=0;entryY=0.5;entryDx=0;entryDy=0;" edge="1" parent="1" target="Eki4KBoAl_g5-UjPPlPT-4">
          <mxGeometry width="50" height="50" relative="1" as="geometry">
            <mxPoint x="70" y="220" as="sourcePoint" />
            <mxPoint x="200" y="240" as="targetPoint" />
          </mxGeometry>
        </mxCell>
        <mxCell id="Eki4KBoAl_g5-UjPPlPT-13" value="" style="endArrow=classic;html=1;rounded=0;entryX=0;entryY=0.5;entryDx=0;entryDy=0;" edge="1" parent="1" target="Eki4KBoAl_g5-UjPPlPT-9">
          <mxGeometry width="50" height="50" relative="1" as="geometry">
            <mxPoint x="70" y="300" as="sourcePoint" />
            <mxPoint x="100" y="230" as="targetPoint" />
          </mxGeometry>
        </mxCell>
        <mxCell id="Eki4KBoAl_g5-UjPPlPT-14" value="" style="endArrow=classic;html=1;rounded=0;entryX=0;entryY=0.5;entryDx=0;entryDy=0;" edge="1" parent="1" target="Eki4KBoAl_g5-UjPPlPT-8">
          <mxGeometry width="50" height="50" relative="1" as="geometry">
            <mxPoint x="70" y="380" as="sourcePoint" />
            <mxPoint x="110" y="240" as="targetPoint" />
          </mxGeometry>
        </mxCell>
        <mxCell id="Eki4KBoAl_g5-UjPPlPT-15" value="" style="endArrow=classic;html=1;rounded=0;entryX=0;entryY=0.5;entryDx=0;entryDy=0;" edge="1" parent="1" target="Eki4KBoAl_g5-UjPPlPT-7">
          <mxGeometry width="50" height="50" relative="1" as="geometry">
            <mxPoint x="70" y="460" as="sourcePoint" />
            <mxPoint x="120" y="250" as="targetPoint" />
          </mxGeometry>
        </mxCell>
        <mxCell id="Eki4KBoAl_g5-UjPPlPT-16" value="" style="endArrow=classic;html=1;rounded=0;entryX=0;entryY=0.5;entryDx=0;entryDy=0;" edge="1" parent="1" target="Eki4KBoAl_g5-UjPPlPT-6">
          <mxGeometry width="50" height="50" relative="1" as="geometry">
            <mxPoint x="70" y="540" as="sourcePoint" />
            <mxPoint x="130" y="260" as="targetPoint" />
          </mxGeometry>
        </mxCell>
        <mxCell id="Eki4KBoAl_g5-UjPPlPT-17" value="" style="endArrow=classic;html=1;rounded=0;entryX=0;entryY=0.5;entryDx=0;entryDy=0;" edge="1" parent="1" target="Eki4KBoAl_g5-UjPPlPT-5">
          <mxGeometry width="50" height="50" relative="1" as="geometry">
            <mxPoint x="70" y="620" as="sourcePoint" />
            <mxPoint x="380" y="440" as="targetPoint" />
          </mxGeometry>
        </mxCell>
        <mxCell id="Eki4KBoAl_g5-UjPPlPT-18" value="" style="endArrow=none;html=1;rounded=0;" edge="1" parent="1">
          <mxGeometry width="50" height="50" relative="1" as="geometry">
            <mxPoint x="160" y="100" as="sourcePoint" />
            <mxPoint x="640" y="100" as="targetPoint" />
          </mxGeometry>
        </mxCell>
        <mxCell id="Eki4KBoAl_g5-UjPPlPT-20" value="" style="endArrow=classic;html=1;rounded=0;entryX=0.599;entryY=-0.001;entryDx=0;entryDy=0;entryPerimeter=0;" edge="1" parent="1" target="Eki4KBoAl_g5-UjPPlPT-3">
          <mxGeometry width="50" height="50" relative="1" as="geometry">
            <mxPoint x="640" y="100" as="sourcePoint" />
            <mxPoint x="460" y="90" as="targetPoint" />
          </mxGeometry>
        </mxCell>
        <mxCell id="Eki4KBoAl_g5-UjPPlPT-21" value="" style="endArrow=classic;html=1;rounded=0;entryX=0.4;entryY=-0.047;entryDx=0;entryDy=0;entryPerimeter=0;" edge="1" parent="1" target="Eki4KBoAl_g5-UjPPlPT-2">
          <mxGeometry width="50" height="50" relative="1" as="geometry">
            <mxPoint x="160" y="100" as="sourcePoint" />
            <mxPoint x="340" y="150" as="targetPoint" />
          </mxGeometry>
        </mxCell>
        <mxCell id="Eki4KBoAl_g5-UjPPlPT-22" value="" style="endArrow=none;html=1;rounded=0;entryX=0.5;entryY=1;entryDx=0;entryDy=0;" edge="1" parent="1" target="Eki4KBoAl_g5-UjPPlPT-1">
          <mxGeometry width="50" height="50" relative="1" as="geometry">
            <mxPoint x="400" y="100" as="sourcePoint" />
            <mxPoint x="420" y="200" as="targetPoint" />
          </mxGeometry>
        </mxCell>
        <mxCell id="Eki4KBoAl_g5-UjPPlPT-23" value="Quản lí category" style="rounded=0;whiteSpace=wrap;html=1;" vertex="1" parent="1">
          <mxGeometry x="420" y="440" width="180" height="40" as="geometry" />
        </mxCell>
        <mxCell id="Eki4KBoAl_g5-UjPPlPT-24" value="Quản lí user" style="rounded=0;whiteSpace=wrap;html=1;" vertex="1" parent="1">
          <mxGeometry x="420" y="360" width="180" height="40" as="geometry" />
        </mxCell>
        <mxCell id="Eki4KBoAl_g5-UjPPlPT-25" value="Quản lí oder" style="rounded=0;whiteSpace=wrap;html=1;" vertex="1" parent="1">
          <mxGeometry x="420" y="280" width="180" height="40" as="geometry" />
        </mxCell>
        <mxCell id="Eki4KBoAl_g5-UjPPlPT-26" value="Quản lí product" style="rounded=0;whiteSpace=wrap;html=1;" vertex="1" parent="1">
          <mxGeometry x="420" y="200" width="180" height="40" as="geometry" />
        </mxCell>
        <mxCell id="Eki4KBoAl_g5-UjPPlPT-27" value="Thêm sửa xóa product" style="rounded=0;whiteSpace=wrap;html=1;" vertex="1" parent="1">
          <mxGeometry x="640" y="200" width="180" height="40" as="geometry" />
        </mxCell>
        <mxCell id="Eki4KBoAl_g5-UjPPlPT-28" value="Thêm, xóa categopry" style="rounded=0;whiteSpace=wrap;html=1;" vertex="1" parent="1">
          <mxGeometry x="640" y="440" width="180" height="40" as="geometry" />
        </mxCell>
        <mxCell id="Eki4KBoAl_g5-UjPPlPT-29" value="Sửa, xóa user" style="rounded=0;whiteSpace=wrap;html=1;" vertex="1" parent="1">
          <mxGeometry x="640" y="360" width="180" height="40" as="geometry" />
        </mxCell>
        <mxCell id="Eki4KBoAl_g5-UjPPlPT-30" value="Sửa, xóa oder" style="rounded=0;whiteSpace=wrap;html=1;" vertex="1" parent="1">
          <mxGeometry x="640" y="280" width="180" height="40" as="geometry" />
        </mxCell>
        <mxCell id="Eki4KBoAl_g5-UjPPlPT-31" value="" style="endArrow=none;html=1;rounded=0;entryX=0;entryY=0.5;entryDx=0;entryDy=0;" edge="1" parent="1" target="Eki4KBoAl_g5-UjPPlPT-3">
          <mxGeometry width="50" height="50" relative="1" as="geometry">
            <mxPoint x="390" y="460" as="sourcePoint" />
            <mxPoint x="390" y="310" as="targetPoint" />
            <Array as="points">
              <mxPoint x="390" y="140" />
            </Array>
          </mxGeometry>
        </mxCell>
        <mxCell id="Eki4KBoAl_g5-UjPPlPT-32" value="" style="endArrow=classic;html=1;rounded=0;entryX=0;entryY=0.5;entryDx=0;entryDy=0;" edge="1" parent="1" target="Eki4KBoAl_g5-UjPPlPT-26">
          <mxGeometry width="50" height="50" relative="1" as="geometry">
            <mxPoint x="390" y="220" as="sourcePoint" />
            <mxPoint x="450" y="310" as="targetPoint" />
          </mxGeometry>
        </mxCell>
        <mxCell id="Eki4KBoAl_g5-UjPPlPT-33" value="" style="endArrow=classic;html=1;rounded=0;entryX=0;entryY=0.5;entryDx=0;entryDy=0;" edge="1" parent="1" target="Eki4KBoAl_g5-UjPPlPT-25">
          <mxGeometry width="50" height="50" relative="1" as="geometry">
            <mxPoint x="390" y="300" as="sourcePoint" />
            <mxPoint x="430" y="230" as="targetPoint" />
          </mxGeometry>
        </mxCell>
        <mxCell id="Eki4KBoAl_g5-UjPPlPT-34" value="" style="endArrow=classic;html=1;rounded=0;entryX=0;entryY=0.5;entryDx=0;entryDy=0;" edge="1" parent="1" target="Eki4KBoAl_g5-UjPPlPT-24">
          <mxGeometry width="50" height="50" relative="1" as="geometry">
            <mxPoint x="390" y="380" as="sourcePoint" />
            <mxPoint x="430" y="310" as="targetPoint" />
          </mxGeometry>
        </mxCell>
        <mxCell id="Eki4KBoAl_g5-UjPPlPT-35" value="" style="endArrow=classic;html=1;rounded=0;entryX=0;entryY=0.5;entryDx=0;entryDy=0;" edge="1" parent="1" target="Eki4KBoAl_g5-UjPPlPT-23">
          <mxGeometry width="50" height="50" relative="1" as="geometry">
            <mxPoint x="390" y="460" as="sourcePoint" />
            <mxPoint x="430" y="390" as="targetPoint" />
          </mxGeometry>
        </mxCell>
        <mxCell id="Eki4KBoAl_g5-UjPPlPT-36" value="" style="endArrow=classic;html=1;rounded=0;entryX=0;entryY=0.5;entryDx=0;entryDy=0;" edge="1" parent="1" target="Eki4KBoAl_g5-UjPPlPT-27">
          <mxGeometry width="50" height="50" relative="1" as="geometry">
            <mxPoint x="600" y="220" as="sourcePoint" />
            <mxPoint x="430" y="230" as="targetPoint" />
          </mxGeometry>
        </mxCell>
        <mxCell id="Eki4KBoAl_g5-UjPPlPT-37" value="" style="endArrow=classic;html=1;rounded=0;entryX=0;entryY=0.5;entryDx=0;entryDy=0;exitX=1;exitY=0.5;exitDx=0;exitDy=0;" edge="1" parent="1" source="Eki4KBoAl_g5-UjPPlPT-25" target="Eki4KBoAl_g5-UjPPlPT-30">
          <mxGeometry width="50" height="50" relative="1" as="geometry">
            <mxPoint x="610" y="230" as="sourcePoint" />
            <mxPoint x="650" y="230" as="targetPoint" />
          </mxGeometry>
        </mxCell>
        <mxCell id="Eki4KBoAl_g5-UjPPlPT-38" value="" style="endArrow=classic;html=1;rounded=0;entryX=0;entryY=0.5;entryDx=0;entryDy=0;exitX=1;exitY=0.5;exitDx=0;exitDy=0;" edge="1" parent="1" source="Eki4KBoAl_g5-UjPPlPT-24" target="Eki4KBoAl_g5-UjPPlPT-29">
          <mxGeometry width="50" height="50" relative="1" as="geometry">
            <mxPoint x="610" y="310" as="sourcePoint" />
            <mxPoint x="650" y="310" as="targetPoint" />
          </mxGeometry>
        </mxCell>
        <mxCell id="Eki4KBoAl_g5-UjPPlPT-39" value="" style="endArrow=classic;html=1;rounded=0;entryX=0;entryY=0.5;entryDx=0;entryDy=0;exitX=1;exitY=0.5;exitDx=0;exitDy=0;" edge="1" parent="1" source="Eki4KBoAl_g5-UjPPlPT-23" target="Eki4KBoAl_g5-UjPPlPT-28">
          <mxGeometry width="50" height="50" relative="1" as="geometry">
            <mxPoint x="610" y="390" as="sourcePoint" />
            <mxPoint x="650" y="390" as="targetPoint" />
          </mxGeometry>
        </mxCell>
      </root>
    </mxGraphModel>
  </diagram>
</mxfile>
